Coordinates
version=1
nRows=10
nColumns=34
inDegrees=yes

Units are S.I. units (second, meters, Newtons, ...)
If the header above contains a line with 'inDegrees', this indicates whether rotational values are in degrees (yes) or radians (no).

endheader
time	pelvis_tilt	pelvis_list	pelvis_rotation	pelvis_tx	pelvis_ty	pelvis_tz	hip_flexion_r	hip_adduction_r	hip_rotation_r	knee_angle_r	ankle_angle_r	subtalar_angle_r	mtp_angle_r	hip_flexion_l	hip_adduction_l	hip_rotation_l	knee_angle_l	ankle_angle_l	subtalar_angle_l	mtp_angle_l	lumbar_extension	lumbar_bending	lumbar_rotation	arm_flex_r	arm_add_r	arm_rot_r	elbow_flex_r	pro_sup_r	arm_flex_l	arm_add_l	arm_rot_l	elbow_flex_l	pro_sup_l
      3.48333330	     11.95604294	    -20.60383353	     74.36519157	     -1.12720207	      0.77569640	     -0.01403308	     42.57560509	    -21.14415445	      9.94646439	     43.28024994	     -8.74943271	    -17.98763203	      0.00000000	     50.83080749	      8.42481463	    -17.76408030	     43.91372881	     20.50931586	     -1.83768487	      0.00000000	    -19.46860779	      2.10079307	      0.51941978	    -24.81315074	    -20.53317592	    -59.45066204	     89.39586627	     88.40291917	     37.39024278	     -3.31979862	    355.03069250	    106.73328523	     92.29958386
      3.50000000	     11.06912228	    -21.22635377	     78.31125707	     -1.08906183	      0.75819336	     -0.00925090	     40.05375490	    -25.18257669	      9.27986336	     32.11590066	     -6.73827798	    -12.83621993	      0.00000000	     55.74023471	      6.96838321	    -18.87891643	     52.77797853	     27.07214157	      0.31992945	      0.00000000	    -19.79376986	      1.03124612	     -4.39223265	    -23.49799957	    -19.09191377	    -57.15588156	     88.12084800	     87.97574115	     42.20717720	      2.79591556	    358.01578244	    102.47847345	     92.53271478
      3.51666670	     10.33215451	    -22.28308603	     81.30739152	     -1.04819259	      0.73675953	     -0.00280129	     38.59873356	    -27.79244696	      8.94736709	     24.18774602	     -5.96031840	     -9.35825572	      0.00000000	     61.17748437	      4.05964680	    -20.55169445	     61.94723580	     33.10742214	     -0.52318299	      0.00000000	    -19.49318991	      0.10664262	     -7.56392136	    -22.81432189	    -17.99789982	    -55.03532599	     86.12953874	     87.45519974	     44.28949356	      7.58883562	    359.44584426	     98.28206517	     92.53344988
      3.53333330	      9.96257362	    -23.54532153	     83.20996963	     -1.00762821	      0.71431702	      0.00458650	     38.38456281	    -28.79657790	      9.51495591	     19.96858653	     -5.41925825	     -7.70899455	      0.00000000	     66.89776378	      0.37907888	    -21.26232395	     70.72390462	     38.46285387	     -1.50912657	      0.00000000	    -18.61101217	     -0.35280062	     -8.03737906	    -22.95666088	    -17.22867238	    -53.85447876	     84.34962224	     87.16354904	     42.99244247	      9.75956605	    359.33250737	     97.45174310	     92.30704027
      3.55000000	      9.53131132	    -24.69950211	     84.05026145	     -0.97195358	      0.69873505	      0.01015370	     39.10809790	    -28.82780896	     10.97899946	     18.90834626	     -3.85910332	     -7.17743994	      0.00000000	     71.90637151	     -3.20754091	    -21.06320822	     77.90601591	     42.59615072	     -1.35528155	      0.00000000	    -17.29345006	     -1.01687477	     -6.54366092	    -22.52047812	    -17.57735427	    -52.01064119	     81.09933238	     86.65732644	     38.99925224	     10.07138770	    357.69164018	     98.87733306	     91.48421735
      3.56666670	      9.37793453	    -25.75549077	     84.47909511	     -0.94281480	      0.68847793	      0.01184537	     40.37265915	    -28.01681728	     13.01717690	     20.60346089	     -1.26800774	     -8.60549429	      0.00000000	     75.81790703	     -6.17937573	    -19.83515307	     83.02172353	     45.01147419	     -0.84014151	      0.00000000	    -16.13649082	     -1.02712711	     -7.01127024	    -17.70893045	    -20.18984608	    -46.17695012	     75.19235585	     85.58813823	     32.40118576	      6.96064869	    352.82137301	    104.67325662	     88.55627898
      3.58333330	      9.26978472	    -26.86825752	     84.89142569	     -0.91973272	      0.68340091	      0.01010766	     42.26432883	    -27.10615875	     14.61237601	     24.23243465	      2.20052625	     -9.79720024	      0.00000000	     78.59354152	     -8.05149792	    -18.23175659	     85.97889283	     46.21117082	     -0.36690199	      0.00000000	    -15.42550929	     -0.23351309	     -7.84785710	    -10.69819450	    -23.12110659	    -39.50828230	     68.34651717	     84.57776247	     24.15755017	      4.63654159	    346.19925299	    109.30792308	     84.58947143
      3.60000000	      9.16351607	    -27.74295602	     85.41829257	     -0.90018794	      0.68392550	      0.00881048	     44.71879075	    -26.24092699	     15.52544747	     29.16108155	      5.90641005	     -9.81235008	      0.00000000	     80.14689469	     -8.90445998	    -16.56905770	     87.10358636	     46.52022234	     -0.16871785	      0.00000000	    -15.85678535	      0.92955811	     -9.57308373	     -0.56785194	    -25.64201026	    -31.03035902	     59.79073640	     83.46940103	     15.90026692	      3.87863276	    337.93646467	    111.66077993	     80.24298453
      3.61666670	      8.87174470	    -28.47581924	     86.03338640	     -0.88061124	      0.68949659	      0.01116646	     47.86106892	    -25.52743207	     15.60981507	     34.62610270	      9.24097946	     -8.61746818	      0.00000000	     80.94608902	     -9.06250030	    -15.09877664	     86.85877219	     46.19278604	     -0.12251047	      0.00000000	    -17.30496691	      1.91101615	    -10.07442605	      9.67433753	    -26.61044051	    -23.54413968	     51.85836942	     81.98507049	     10.29877564	      4.82427383	    330.52961406	    109.13911697	     76.69986814
      3.63333330	      8.47528506	    -28.89230330	     86.87056132	     -0.86015878	      0.69909555	      0.01706520	     50.88382580	    -25.07958627	     14.57930714	     39.54685179	     12.09004237	     -6.78828571	      0.00000000	     81.13574336	     -8.91278435	    -13.90921039	     85.71379735	     45.15299620	     -0.37229112	      0.00000000	    -19.54968326	      2.51335696	     -8.88389464	     18.80223283	    -26.35477008	    -17.79492682	     46.73507758	     80.15205423	      8.23656685	      6.43497468	    325.48917569	    101.26177795	     74.73953816
